<?xml version="1.0" ?><svg id="Layer_1" style="enable-background:new 0 0 91 91;" version="1.1" viewBox="0 0 91 91" xml:space="preserve" xmlns="http://www.w3.org/2000/svg" xmlns:xlink="http://www.w3.org/1999/xlink"><style type="text/css">
	.st0{fill:#4E7A9E;}
</style><g><g><path class="st0" d="M25.9,26c1.5,3,3.6,5.7,5.8,8.2c3.2,3.5,8.6-1.8,5.2-5.2c-2.8-2.9-6.5-4.8-8.5-8.5c-0.9-1.6-3-1.3-4,0    c-1.6,2.3-3.4,4.5-5.4,6.6c-1.7,1.7-3.6,3.2-5,5.2c-0.7,1,0.4,2.4,1.6,2C19.6,33,23,29.5,25.9,26z"/><path class="st0" d="M68,20.5c-0.9-1.6-3-1.3-4,0c-1.6,2.3-3.4,4.5-5.4,6.6c-1.7,1.7-3.6,3.2-5,5.2c-0.7,1,0.4,2.4,1.6,2    c4-1.3,7.4-4.8,10.2-8.3c1.5,3,3.6,5.7,5.8,8.2c3.2,3.5,8.6-1.8,5.2-5.2C73.7,26.1,70,24.2,68,20.5z"/><path class="st0" d="M74.3,51.6c0.1-1.2-1.2-2.3-2.3-2.3c-9,0.1-18.1,0-27.1,0.2c-4.5,0.1-9,0.2-13.6,0.4c-4.2,0.2-8.7,0-12.7,1.3    c-1.3,0.4-1.4,2.4,0,2.8c0.3,0.1,0.6,0.1,0.9,0.2c-0.4,0.5-0.6,1-0.6,1.8c-0.1,4.5-0.6,8.9-1.5,13.3c-0.3,1.4,0.4,3.4,2.1,3.7    c17.5,2.7,35.2,2.4,52.7,0.2c1.3-0.2,2.8-1.1,2.7-2.7C74.3,64.3,73.7,57.7,74.3,51.6z M23.7,67.6c0.6-3.8,1-7.7,1-11.6    c0-0.5-0.1-0.9-0.2-1.2c2.3,0.1,4.6,0,6.8,0c4.5,0.1,9,0,13.6-0.1c8.2-0.1,16.4-0.5,24.6-0.7c-0.3,4.7-0.3,9.3-0.1,14    C54.2,69.3,38.8,69.6,23.7,67.6z"/></g></g></svg>